<svg id="Слой_1" data-name="Слой 1" xmlns="http://www.w3.org/2000/svg" viewBox="0 0 406.2 124.97"><defs><style>.cls-1{fill:#e30613;}</style></defs><path class="cls-1" d="M69.18,373.93l1.83-.18a4.53,4.53,0,0,0,.61.34.22.22,0,0,0,.33.17,1.35,1.35,0,0,1,.78.34l.13.14.18,0a.88.88,0,0,1,.76.5l.12.95a3.29,3.29,0,0,0-.48.57l-.54.13c-.46.35-1.15.07-1.58.55a.43.43,0,0,0-.48.13,1.83,1.83,0,0,0-.44.48l-.15.15.06.2c-.06.27-.17.55.11.76,0,.53-.06,1.09.34,1.54l.09.25.25,0,.46.2a4,4,0,0,1,.68.41h0a1,1,0,0,0,.55.37l.1.09a.62.62,0,0,0,.47.4l.1.09a.46.46,0,0,0,.41.33l.52.17c.26.25.52.09.77,0h.22l.11-.19a.74.74,0,0,0,.34-.45l.06-1.5c.6-.68,1.33-.49,2.06-.32.07.16.17.19.32.1a1.41,1.41,0,0,1,.78.34,1.21,1.21,0,0,0,.38.06c.05,0,.09-.11.14-.17a1,1,0,0,0-.13-1.42l0,0a2,2,0,0,0-.54-.45l0,0c-.24-.4-.39-.78.2-1l.19,0,.1-.16c.17-.17.34-.34.5-.52h0a3.92,3.92,0,0,1,.51-.57c.34-.12,1.06.25.83-.63a1.06,1.06,0,0,1,0-1.06v0c-.27-1.57-1.54-.16-2.15-.72a.39.39,0,0,0-.45-.14,1,1,0,0,1-.17-1.52l0,0c.22-.55.5-1,.76-.9-.5-.09-1.5.35-2.45,0l-.55,0a1.22,1.22,0,0,0-.58-.36l-.1-.09a.77.77,0,0,0-.47-.43l-.06-.07a1.13,1.13,0,0,1-.09-1.1l0-.07a.51.51,0,0,0,.32-.44l.19-.5c.12-.23.29-.42.4-.65l0,0c.63-.5,1.54,0,2.14-.63l2-.16c.33.26.77.15,1.12.33.68.32,1.56-.4,2.15.41a2.41,2.41,0,0,0-.4.63l0,0c-.33.21-.09.46,0,.7s0,.28.2.31a.72.72,0,0,0,.44.34,1,1,0,0,0,1.08-.09.73.73,0,0,0,.4-.41.32.32,0,0,0,0-.54,1.34,1.34,0,0,1-.46-.71l-.19-1.36a3.72,3.72,0,0,0,.48-.57l.53-.13a1.54,1.54,0,0,0,.46-.49v0a1,1,0,0,0,.37-.55l.08-.09c.31-.4.58-.84,1.12-1a14.91,14.91,0,0,1,1.78-.19,3.38,3.38,0,0,1-1.41-.17c-.94-.84-2.25-.85-3.28-1.47l-.69-.6a2.12,2.12,0,0,0-.43-.51h0c-.2-.15-.38-.31-.58-.47h0c-.24-.27-.48-.1-.73,0l-.85.28c-.25.1-.43.33-.71.37l-.19,0-.12.16a1.27,1.27,0,0,1-.71.46c-1,.23-2,0-2.94.46a1.83,1.83,0,0,0-.5.42h0a1.13,1.13,0,0,1-.71.53l-.19,0-.1.17a1.38,1.38,0,0,1-.72.46h-.19L74,364a1.54,1.54,0,0,1-.71.46l-.06,0c-.57-.07-.51-.68-.83-1v0c-.45-.36-.87-.11-1.29.05l-.84.26c-.86.05-.84-.5-.76-1.1a.41.41,0,0,0,.14-.47,1.21,1.21,0,0,1,.55-.63l.43-.27A.46.46,0,0,0,71,361l.08-.1a.45.45,0,0,0,.34-.41l.2-.46a1.17,1.17,0,0,1,.54-.64c.61-.16,1.62.26,1.47-1a8.63,8.63,0,0,1,.32-1.31l0,0c.2-.15.37-.35.57-.5l1-.25c.41-.14.83-.25,1.22-.42l.84-.27a.8.8,0,0,0,.4-.41c.38-.52,0-1,0-1.54a4.61,4.61,0,0,0,.38-.65l0-.07a.83.83,0,0,0,.42-.5l.07-.06a3.8,3.8,0,0,0,.59-.47c.7-.15,1.52.18,2.09-.5a1,1,0,0,1,.45-.76l0,0c.23-.4.75-.33,1-.65l.48-.2a1.88,1.88,0,0,0,.51-.42h0a1.94,1.94,0,0,1,.58-.56l.43-.27a.68.68,0,0,0,.43-.38l0,0c.53-.3,1-.51,1.57,0a.38.38,0,0,0,.2.42.62.62,0,0,0,.42.35l.87.13a1.69,1.69,0,0,0,1.47-.11l1.37-.27a1.64,1.64,0,0,1,.71-.41h.2l.1-.16a3.48,3.48,0,0,1,.59-.5.44.44,0,0,0,.43-.15,58.74,58.74,0,0,1,10-.8.44.44,0,0,0,.48.07,2.69,2.69,0,0,0,.61.31l1,.08c.5.4,1.13,0,1.65.29.36.1.73.28,1.07,0a1.3,1.3,0,0,1,.72-.48.24.24,0,0,0,.31-.22,12.06,12.06,0,0,1,4.19-.31l2.08-.06c2.14.46,4.25-.37,6.38-.14l.89.14c.45.1.91.28,1.3-.15l4-.27c.59.24,1.23,0,1.82.23l2.44,0c1.48.37,3-.24,4.44,0a24.22,24.22,0,0,0,4.74-.21c.33.25.74.17,1.11.28a8,8,0,0,0,2.45,0c1.48.37,3-.25,4.44,0a15.1,15.1,0,0,0,3.68-.13c.68.47,1.48-.09,2.18.25a32.44,32.44,0,0,0,6.88-.61,1.17,1.17,0,0,1,1,0l.86.08a1.89,1.89,0,0,0,1.84-.19l1-.08c1.61.49,3.2-.26,4.81,0l1,.1c.66.28.19,1.14.76,1.47l0,0a1,1,0,0,0,.52.35l.55,0a.64.64,0,0,0,.36-.41l.14-.22,0-.26a2.53,2.53,0,0,1,.5-.63l.93-.05a.37.37,0,0,0,.56-.1l0,0c.21-.15.37-.35.58-.5L180,345a1.26,1.26,0,0,1,.77.34l.14.14.19-.05c.28,0,.5.19.75.26l.56.09a3.6,3.6,0,0,0,.58.45v0a3.53,3.53,0,0,1,.51.58l0,0c.2.1.41.2.62.28a6.29,6.29,0,0,0,3.19-.25,1.83,1.83,0,0,0,.5-.42h0c.27-.36.77-.3,1-.62.54-.14,1.33.29,1.49-.67.19-.18.34-.37.51-.56a.59.59,0,0,0,.47,0c.47.44,1.2-.08,1.64.45l0,0a1.42,1.42,0,0,1,.59.55.36.36,0,0,0,.23.41c.6.54,1.33,0,2,.24l.51.12c.33.26.77.15,1.12.33l.55-.1a3.09,3.09,0,0,0,.55-.4c.5-.09,1,.13,1.52-.18a2.59,2.59,0,0,1,2.09-.22,1.43,1.43,0,0,0,1.6-.19c.5-.26,1.15,0,1.58-.49l1.32-.05a1.36,1.36,0,0,1,.78.35.2.2,0,0,0,.32.1,1.56,1.56,0,0,1,.77.3l1,0c.5.4,1.14,0,1.66.29H213c.95.48,1.95-.43,2.9.1,2.58.17,5.12-.38,7.68-.4a1.62,1.62,0,0,1,.77.3l.55,0a1.52,1.52,0,0,1,1.58,0h0a.84.84,0,0,1,.13,1.07l0,0a1.77,1.77,0,0,1-.73.47l-.83.23q-.27.21-.54.45l0,0a2.67,2.67,0,0,1-.45.61h0c-.16.14-.16.26,0,.37l.5.13c.68.46,1.46,0,2.16.2l1,.08c.69.45,1.46,0,2.17.19a1.83,1.83,0,0,0,1.61-.12c.33-.19.81-.3.41-.84l-.09-.07a.48.48,0,0,0-.41-.35.25.25,0,0,0-.36-.22c-.42-.12-.87-.12-1.29-.27l-1-.05a1.09,1.09,0,0,1-.62-.59l0-.14-.07-.13a4.64,4.64,0,0,1,.38-.69l0,0c.21-.15.37-.35.57-.5l2.35-.15c2.38.38,4.73-.5,7.1-.19l.87.1c.28,0,.49.18.75.26a1.44,1.44,0,0,0,1.61-.08,12.87,12.87,0,0,1,1.22-.48l2.21-.18c.76.35,1.62-.17,2.36.28h0c.85.53,1.78-.09,2.64.18l.57.1a1.65,1.65,0,0,0,.58.39l.06.07a2.26,2.26,0,0,1,.44.73l.09.73c-.58.69-1.33.46-2.05.36l-.55.1a6.71,6.71,0,0,1-2.6.21,1,1,0,0,0-1.09.08c-.24.11-.42.33-.7.37l-1.37.19a6.44,6.44,0,0,0-.56-.48c-.12-.35.33-1.08-.6-.86a5.22,5.22,0,0,1-1,1c-.43,0-.92-.09-1,.56a3.55,3.55,0,0,0-.32.61.39.39,0,0,0,0,.54c.26.3.65.22,1,.38a.46.46,0,0,0,.5.06c.33.25.75.17,1.11.28l1.94.05c.45.1.91.28,1.3-.15l3.6-.29c.33.26.75.18,1.12.28l.87.15c.28,0,.5.19.75.25a18.43,18.43,0,0,0,4.2-.17c.5.4,1.14,0,1.65.29a1.4,1.4,0,0,0,1.08-.08c1.77.05,3.57-1.7,5.32.07a.35.35,0,0,0,.45.11,3,3,0,0,0,.61.32l1.93.06c.28,0,.5.19.75.26l.49.12a4.59,4.59,0,0,0,.61.35c.07.18.18.24.36.15.27.06.55.17.76-.11l.81,0c.42.12.87.12,1.28.28a15.49,15.49,0,0,0,4.24-.34c.47-.36,1.16-.08,1.58-.55l6.6-.48a10.57,10.57,0,0,0,4.61-.35,2.86,2.86,0,0,1,2.49.11,35,35,0,0,0,6.86-.47c.23-.19.38-.15.45.15l0,0a1.25,1.25,0,0,1,.68.4h0c.85.54,1.8-.15,2.66.23l.55-.05q.27-.21.54-.45l0,0a6.15,6.15,0,0,1,.42-.62v0a1.11,1.11,0,0,0,.4-.55l.07-.05a4.58,4.58,0,0,0,.59-.48c.81-.18.54-.65.29-1.11a1.68,1.68,0,0,0-.48-.44l-.13-.14-.19,0a1.44,1.44,0,0,1-.79-.36h0a2.61,2.61,0,0,0-.52-.53l0-.2,0-.2c1.31-.8,2.75-.54,4.17-.57a.36.36,0,0,0,.43.13,1,1,0,0,1,.63.59.18.18,0,0,0,0,.27,5.76,5.76,0,0,1-.38.69l0,0c-.21.14-.37.35-.58.5s-.53.32-.38.42.63.09,1,.11a2.37,2.37,0,0,0,.61.32,1.34,1.34,0,0,0,1.05.15,3.3,3.3,0,0,1,2.12,1.28c.61.81,1.41.69,2.23.45a.26.26,0,0,0,.08-.2c0-.06-.11-.1-.18-.15a9.27,9.27,0,0,1-.92-.7c-.56-.43-1.24-.3-1.87-.39a2.35,2.35,0,0,1-.68-.22.88.88,0,0,1-.36-1.27l0,0c.31-.27.78-.23,1.08-.55,1-.13,2.13.06,3.12-.47a.44.44,0,0,0,.35-.39l.09-.1a1.31,1.31,0,0,0,.52-.44l1-.06a5.45,5.45,0,0,0,.62.35.22.22,0,0,0,.32.16c1.13.32,2.27-.16,3.4,0a20.46,20.46,0,0,0,5.84-.47,4.54,4.54,0,0,1,2.07-.16l1.4.09c1.12.36,2.26-.15,3.39.06,1.35.27,2.69-.15,4-.12,1.31.37,2.62-.2,3.92,0s2.69-.14,4-.11a8.14,8.14,0,0,0,4.37-.43l0-.05a.3.3,0,0,0,0-.51l-.08-1c.31-.38.81-.4,1.21-.6l2.43-.26c.18.17.37.33.56.48,0,.32,0,.64,0,1a3.1,3.1,0,0,1-.39.66c-.29.52.14.47.42.54s.79.31,1.11-.12l.14-.13,0-.18c.19-.66.52-.62.94-.2l.27.43a.8.8,0,0,0,.37.46c0,.78.24,1.66-.94,1.83-.49.26-1.14,0-1.58.49l-1,.19c-.42.34-.24.63.08.92l.13.14.19-.06c.43.12.87.12,1.29.27l.54,0c.39-.22.83-.29,1.23-.47l.2,0,.11-.17a6,6,0,0,0,.5-.51h0a1.84,1.84,0,0,0,.34-.57l.62-.72c.24-.12.42-.34.7-.39l.2,0,.11-.17.54-.5,0,0c.23-.41.76-.34,1-.66l1-.24a2.49,2.49,0,0,1,1.55-.1c.06.18.17.24.35.16s.49.19.75.27l.48.12a2.92,2.92,0,0,0,.61.31l.56,0a1.29,1.29,0,0,0,.47-.43h0c.27-.24.09-.49,0-.74-.48-.55-1.07-.21-1.62-.22a2.92,2.92,0,0,0-.61-.31c-1-.46-2.2.5-3.19-.33a1,1,0,0,1,.68-.61l.19,0,.1-.16a1.38,1.38,0,0,1,.72-.46h.19l.1-.16a1.38,1.38,0,0,1,.72-.46l.83-.29c.24-.11.42-.33.7-.37l.84-.28c.35-.16.77-.15,1-.46l2.6-.22c.17.18.37.34.56.51a.49.49,0,0,0,0,.41c-.33.69.3.84.65,1.15a1,1,0,0,0,.05.49,5.17,5.17,0,0,0-.48.57c-.54,0-1.12-.1-1.59.32l-.25.08,0,.26c-.24.28-.15.47.16.61a1.78,1.78,0,0,1,.77.3,1.37,1.37,0,0,0,1.07-.08c.53-.21,1.06-.47,1.55.07a.48.48,0,0,0,.06.4,6.65,6.65,0,0,0-.46.59l-.53.18-.19.15.21.11a.36.36,0,0,0,.44.13c.46.29.48.62.08,1a.42.42,0,0,0-.42.15c-.26.13-.53.25-.8.36a9.09,9.09,0,0,1-2.6.32c-1.76-.3-3.5.13-5.25.19-.73,0-1.46.24-1.78.16.28,0,1-.09,1.68-.14,1.46-.1,2.92-.26,4.39-.32,1.28.41,2.69-.37,3.94.4l2-.1c.6.28,1.11.63.88,1.42a.69.69,0,0,1-.58.34c0,.29.09,0,.13,0a.6.6,0,0,0,.41-.24c.26-.32.36-.73.64-1,5.28-1.09,10.64-1.19,16-1.45l7.18-.42c3.09.3,6.12-.54,9.2-.41a2.09,2.09,0,0,0,1.61-.07,14.47,14.47,0,0,1,4.73-.38h1.91c.76.29,1.56,0,2.33.14a8.12,8.12,0,0,0,2.46,0c.76.29,1.56,0,2.33.14a8.05,8.05,0,0,0,2.45,0c2,.4,4-.43,6-.1l2.61-.1c.69.45,1.46,0,2.17.19a5,5,0,0,0,1.93.06,12.2,12.2,0,0,0,1.8.18l1.4.1a2,2,0,0,1,.8.35l0,0c.17.94-.46.82-1,.77a50.43,50.43,0,0,0-6.84.39c-2-.48-3.9.34-5.86.1s-3.74.23-5.61.24c-1.84-.4-3.67.39-5.52.06a10.43,10.43,0,0,0-3.69.32c-1.61.55-3.17-.38-4.76-.12a14.25,14.25,0,0,0-3.69.13c-1.06-.5-2.15.15-3.22-.12a5,5,0,0,0-1.93,0c-.58-.24-1.23,0-1.82-.23l-1.06.05c-4,1.24-8.19.85-12.31.92-1.81.44-3.65,0-5.52.12a12.76,12.76,0,0,1,2.56.1c2.11,0,4.2-.36,6.3-.18.89.08,2.45,0,1.14,1.69l-11.83.92c-2.2-.35-4.36.39-6.56.2-1.88-.25-3.73.24-5.61.23-2.66-.35-5.23.51-7.85.68-8.6.55-17.2.85-25.83.59-5.19-.16-10.38,0-15.57.21a10.35,10.35,0,0,0-3.47,1c.39-.43,1.38-.2,2.27-.28,9.81-1,19.68-.37,29.51-.85,4-.2,8.1,0,12.12-.58a5.66,5.66,0,0,1,3.38.1,15.3,15.3,0,0,0,3.64-.14c1.42.53,2.86-.3,4.29.08l6.3-.39c1.6.49,3.2-.27,4.8,0l1,.08c.33.27.77.16,1.12.34h1.54a2.31,2.31,0,0,0,.65.32l0,.19a.58.58,0,0,1,.08,1l.06.18a4.32,4.32,0,0,1-2.11.18,6.22,6.22,0,0,0-3.2.26c-3,.63-6,.22-9,1.08l-1,.19a1.7,1.7,0,0,1-.71.42l-.19,0-.11.17a2.74,2.74,0,0,0-.45.51c-.22.54.18.49.49.51.5.4,1.14,0,1.65.3l15.8-1.16a11.33,11.33,0,0,0,5-.35c.2,0,.31-.07.31-.27a.55.55,0,0,0,.38-.41l.07-.05a11,11,0,0,1,4.23-.35l4.19-.23a9.12,9.12,0,0,0,4.49-.31,4.92,4.92,0,0,0,1.89-.36c.73-.29,1.58-.09,2.28-.5l1.68-.14a1.89,1.89,0,0,0,1.84-.19l4.49-.31c.43.12.87.12,1.29.27l3.64-.17a3.6,3.6,0,0,0,.61.33c.82.29,1.63-.06,2.45,0a1.55,1.55,0,0,1,.77.32l.55-.11c1.18-.48,2.54,0,3.68-.67l.49-.19a1.71,1.71,0,0,0,.5-.43h0a1.13,1.13,0,0,1,.71-.53l1.83-.2c.33.27.84.12,1.12.48l0,0a1.45,1.45,0,0,1,.59.56.42.42,0,0,0,.21.43c.18.58-.29.79-.63,1.08l-3.11.35a.52.52,0,0,1-.37.19l-.2,0h.2a.51.51,0,0,1,.4.13l2.07-.06c1.06.52,2.18-.21,3.24.17l2.61-.1c1.05.52,2.17-.21,3.23.16l3-.08c.94.33,1.91-.1,2.86.09a7.44,7.44,0,0,0,2.62,0c.88.48,1.81-.1,2.69.15a5,5,0,0,0,2.1,0c.43.43,2,0,1.12,1.45a.44.44,0,0,0-.43.15c-2.25.64-4.63.29-6.9.85-.34.09,0-.1-.2.14s.28.23.34.43l.11.17.2,0a1.66,1.66,0,0,1,.77.3l1.9,0c.62.15.55.52.3,1h0c-.17.16-.15.31,0,.44a4.24,4.24,0,0,0,2.12-.17,6.55,6.55,0,0,1,.59-.45l.85-.07a3.37,3.37,0,0,1,.66.39l.14.15.19-.06a12,12,0,0,1,1.29.29l.71.56a2.8,2.8,0,0,1,.38.7l0,.07c-.07.58-.7.51-1,.84a23.19,23.19,0,0,0-4.7.53c-.34.16-.75.14-1,.47h0c-.27.3-.84.47-.44,1l.13.15.19-.06c.42.11.87.12,1.29.27l1,0a5.32,5.32,0,0,0,.61.35.23.23,0,0,0,.34.16,1.3,1.3,0,0,1,.77.35l.13.14.19,0a1.41,1.41,0,0,1,.78.34c.07.16.17.19.32.1a1.78,1.78,0,0,1,.77.3l1,0c.68.45,1.46,0,2.16.19l.57.1a5.23,5.23,0,0,0,.56.48l0,1c-1.66.88-3.52.45-5.26.8-.53.11-1.46-.4-1.46.77a13.23,13.23,0,0,0,2.95,0c.42.1.85.14,1.27.21l1,.09a3,3,0,0,0,.61.32.38.38,0,0,0,.45.14c.51.5.71,1,0,1.49a.23.23,0,0,0-.31.06c-.54.57-1.23.34-1.82.37.57.22,1.28-.28,1.87.22l.12-.07a1.67,1.67,0,0,0,.47.52l0,1a3.54,3.54,0,0,1-.41.67v0a3.6,3.6,0,0,0-.5.53h-.84c-.41,0-.88-.36-1.18.2l-.06.05a4.58,4.58,0,0,0-.59.48,2.9,2.9,0,0,0-1.51.29c-.25.1-.43.33-.7.37s-.37.35-.11.6c1,.56,2-.13,3,.15s2.15-.4,3,.5c.27.06.55.18.76-.11l.95-.07a2.73,2.73,0,0,0,.61.32l1,.07c.38.38.5.73-.12,1l-2.4.35c-.71.4-1.58.13-2.29.56l-1.36.32c-.24.1-.42.33-.7.37a.94.94,0,0,0-.84.34.69.69,0,0,0-.44.38h0a3.73,3.73,0,0,1-.6.52l-.94.2a1.44,1.44,0,0,1-.67.22,4.41,4.41,0,0,0-1.4.22,5.5,5.5,0,0,1,1.4-.2,1.28,1.28,0,0,1,.7.11,3.44,3.44,0,0,0,2.12-.23,48,48,0,0,1,9-.59h0a.51.51,0,0,1,.07.55l0,.06a1.43,1.43,0,0,0-.47.51l0,0a3.3,3.3,0,0,1-.6.51.4.4,0,0,0-.42.21,2.8,2.8,0,0,1-.7.38l-.84.28a.84.84,0,0,0-.41.44l0,.07a1.28,1.28,0,0,0-.48.5h0c-.2.16-.34.38-.55.52l0,0a1.64,1.64,0,0,1-.51.6l0,0a1.39,1.39,0,0,1-.56.59l-1.44.14a.84.84,0,0,0-1.14.09,1.24,1.24,0,0,0-1,.17,1.91,1.91,0,0,1-1.55.17c-1-.77-1.09.39-1.57.73l-.24.09-.05.25c-.21.36-.42.72,0,1.08a1,1,0,0,0,1.46-.11h0a3.45,3.45,0,0,1,.54-.54l0,0c1.14-.72,2.41-.46,3.64-.49a.42.42,0,0,0,.46.14,1.35,1.35,0,0,1,.64.49l0,0a1,1,0,0,1,.57.68l.18,1.36a1.74,1.74,0,0,0-.39.58l-.07.06c-.72.41-1.6.14-2.32.57l-.82.24-.19.17.22.14,3-.05a2.76,2.76,0,0,1,.75.25l.56.1a.83.83,0,0,0,.53.29.9.9,0,0,0,.88.19,12.2,12.2,0,0,0,1.8.18l1.51.06a1.59,1.59,0,0,1,.21,2.05l0,0a6.74,6.74,0,0,1-.42.62v0a3.14,3.14,0,0,0-.5.53c-.7.17-1.5-.3-2.12.35a.47.47,0,0,0-.35.41l-.08.09c-.33.28-.32.54,0,.8l1,.08c.54.36,1.31.63.59,1.49a.38.38,0,0,0-.42.21l-.59.36,0,0a.61.61,0,0,0,.09.72l.12,1a1.65,1.65,0,0,0-.39.58l-.07.06a2.42,2.42,0,0,1-.74.44l-.8.19c-.44.35-.38.69.05,1l.1,0a1,1,0,0,1,0,1.1l0,0a1.45,1.45,0,0,1-.73.48c-.29.15-.55.31-.15.63a.73.73,0,0,0,.44.35l1.17.58a1.75,1.75,0,0,1,.16,1.6l0,.07a.52.52,0,0,0-.33.45l-.15.57a1.65,1.65,0,0,0-.39.58l-.07.06c-.4.21-.85.3-1.26.48l-.84.28c-.35.16-.77.15-1.06.45l-.48.2c-.24.11-.42.33-.7.37l-.84.29c-.24.1-.42.32-.7.37l-.84.28c-.24.11-.42.33-.7.37l-1.37.33a2.67,2.67,0,0,0-.55.4l-.46.2a3.74,3.74,0,0,0-.55.41l-.47.26a.72.72,0,0,0-.43.39h0a5.08,5.08,0,0,0-.5.54h0c-.29.31-.19.75-.36,1.11l-.05.07a1.33,1.33,0,0,0-.48.49l0,0c-.17.18-.53.19-.52.55l.19.52a.62.62,0,0,0,.42.34l.86.14a1.06,1.06,0,0,1,.77.47.58.58,0,0,0,0,.37,2.18,2.18,0,0,1-1.84,1.29c-.8-.09-1.53.74-2,.45.79,0,1.86-.51,3-.6a7.75,7.75,0,0,1,3.1-.31l.56.1c.18.17.37.33.56.48l.2.52c.24.31.61.23.92.33l.57.57a2.7,2.7,0,0,0-.36.64l-.07.05a4.58,4.58,0,0,0-.59.48l-.46.2c-.24.11-.42.33-.7.37l-1.89.37c-.25.11-.43.33-.7.37l-.84.28a3.22,3.22,0,0,0-.56.41.45.45,0,0,0-.46.14c-.31.25-.77.21-1.05.52l-.49.19c-.24.12-.42.34-.7.38l-.81.27c-.23.57.2.62.56.74a4.52,4.52,0,0,0,2.67-.21,3.31,3.31,0,0,1,1.12-.2c.44,0,1.1-.25,1,.64l.08.17c-.26.06-.38.3-.59.44l-.46.2a3.15,3.15,0,0,0-.55.41.44.44,0,0,0-.46.14,1.5,1.5,0,0,1-.71.43l-.83.29c-.35.16-.77.15-1.06.46a.43.43,0,0,0-.48.13c-.63.46-1.52,0-2.11.6l-.48.2a.79.79,0,0,0-.42.44l0,.07a1,1,0,0,0-.42.51l-.07.05c-.39.22-.84.31-1.25.49l-.84.22c-.39.22-.83.29-1.23.48l-.84.22c-.39.22-.83.29-1.23.47l-.84.22a1.51,1.51,0,0,1-.71.42h-.19l-.11.16a3.13,3.13,0,0,1-.59.5l-1.41.12c-.46-.34-.9-.1-1.34.06l-.2,0-.11.17a1.4,1.4,0,0,1-.71.46l-.84.14a1.65,1.65,0,0,0-.58-.39l0-.06a1,1,0,0,0-.48-.43c-.54-.33-.47.12-.53.41a2.53,2.53,0,0,1-.5.63.59.59,0,0,0-.49.14c-.54.32-1.21.19-1.75.52a4.94,4.94,0,0,0-1.9.36c-1,.43-2.2,0-3.16.62a35.86,35.86,0,0,0-5.76.62c-.66.34-1.5,0-2.11.54l-4.67.44a1.14,1.14,0,0,1-.66.27.93.93,0,0,1,.69.16l1.52-.06c.84.57,1.88-.31,2.71.36l0,0a1.33,1.33,0,0,1,.59.56l.07.85c-.17.43-.72.35-.94.71v0c-.18.18-.16.33,0,.47v0a1,1,0,0,1,.2,1,.4.4,0,0,0-.14.46.92.92,0,0,1-.68.61l-1.87.32a8.65,8.65,0,0,1-3.68.29,2.13,2.13,0,0,0-1.6.18c-.41.14-.83.25-1.22.42-1.51.26-3.07.08-4.54.57-.41.14-.82.25-1.22.42a12.23,12.23,0,0,0-3,.44c-.25.11-.43.33-.7.37l-.2,0-.11.17-.54.5,0,0c-.71.15-1.37.37-1.47,1.24h0c-.51.36-1,.54-1.55,0v-.23l-.14-.19a2.48,2.48,0,0,0-.49-.48h0a.36.36,0,0,0-.39-.11c-.12,0-.19.09-.18.13a.48.48,0,0,0-.49.14,1.62,1.62,0,0,1-.71.43H389l-.1.16a.51.51,0,0,0-.07.61l0,0c.3,0,.47.21.7.34l0,0a2.84,2.84,0,0,0,.52.52.49.49,0,0,0,0,.41c-.12.27-.25.53-.59.58l0,0a.43.43,0,0,0,.16.55l1,0c.51.39,1.11.05,1.64.24a16.38,16.38,0,0,0,5.31-.43c1.19-.46,2.54,0,3.69-.66a19.64,19.64,0,0,0,4.18-.49,1.39,1.39,0,0,1,1-.07l.56-.06c.7-.11,1.41-.51,2.08.09a.51.51,0,0,0,0,.4,2.07,2.07,0,0,0-.37.6l-.07.06a1.91,1.91,0,0,1-1.63.13l-.07,0a.53.53,0,0,0-.45-.33c-.48-.29-.5,0-.51.38a5.17,5.17,0,0,0-.48.57l-3.7.38c-3,.75-6.16.28-9.15,1.11l-18.23,1.6a46.34,46.34,0,0,1-7.88.69c-4-.08-7.95.54-11.93.77-1.65.1-3.29.27-4.93.41-.26-.25-.52-.09-.77,0l-1.39.32a1.44,1.44,0,0,1-1,.08,5,5,0,0,0-1.93,0c-.94-.33-1.91.1-2.86-.1a2.89,2.89,0,0,0-1.57,0,1.86,1.86,0,0,0-1.84.1l-5.89.47c-1.67-.37-3.32.28-5,.07a37.07,37.07,0,0,0-7.94.63,34.09,34.09,0,0,1-6.84.49l-4,.17c-1.84-.4-3.67.39-5.51.06a38.31,38.31,0,0,0-7.41.65,3.6,3.6,0,0,1-2.08.11l-.86-.09a2.9,2.9,0,0,0-2.37.24l-2.38.12a1.69,1.69,0,0,1-.77-.29l-2.6.1c-1.06-.53-2.17.21-3.24-.17l-2.61.1c-1.05-.52-2.17.21-3.23-.16l-3,.08c-1.13-.35-2.27.15-3.4,0a19.68,19.68,0,0,0-5.3.36,7.72,7.72,0,0,1-3.13.31,17.15,17.15,0,0,0-3.51.07,2.94,2.94,0,0,0-2.37.23l-1,.08c-.33-.25-.75-.18-1.12-.28l-1.4-.1c-.42-.1-.85-.14-1.27-.22a5,5,0,0,0-1.93-.05c-.59-.24-1.23,0-1.82-.23l-1.39,0c-.42-.1-.85-.15-1.28-.22l-1-.08c-.33-.25-.74-.17-1.11-.28l-.49-.13a2.69,2.69,0,0,0-.61-.31,7.44,7.44,0,0,0-2.62.05c-.33-.26-.74-.18-1.11-.28l-.53-.26a1.18,1.18,0,0,1-.59-.24.44.44,0,0,1,0-.57l-.07-.16a1.24,1.24,0,0,1,1.11-.05l0,.16a1.77,1.77,0,0,0,1.64-.13l-.07-.15c.3-.19.71-.19.92-.53l.18-.11v-.22c0-.28.19-.49.26-.75a2.14,2.14,0,0,0-.08-1.61,3.17,3.17,0,0,0-.47-.5h0a1.88,1.88,0,0,0-.56-.33l-.51-.12c-.33-.25-.75-.17-1.11-.28l-.49-.13a3,3,0,0,0-.61-.32.4.4,0,0,0-.46-.14,2.24,2.24,0,0,1-.66-.44h0c-.23-.26-.48-.09-.72,0l-.21,0-.12.17a22,22,0,0,1-6.31.54,2.13,2.13,0,0,0-1.6.18.8.8,0,0,0-.41.44l0,.07a1.83,1.83,0,0,0-.51.49l-.54.18c-.31.14-.69.13-.89.46-.38.39-.05.48.25.58s.49.19.74.26l1.39.11a.73.73,0,0,1,.74.63c0,.27.09.55.14.82a6.57,6.57,0,0,0-.48.57l-.54.24a.45.45,0,0,0-.36.39l-.08.1a.72.72,0,0,0-.43.47l-.07.05c-.55.33-1.24.2-1.79.53l-1.36.27a1,1,0,0,1-1,.08l-1.55,0c-.69-.48-1.49.08-2.18-.25l-1.4-.06a2.81,2.81,0,0,1-.74-.25l-1-.08c-2.14-.46-4.25.37-6.38.14a5,5,0,0,0-1.93,0c-.77-.3-1.56,0-2.34-.14a8,8,0,0,0-2.45,0c-.76-.32-1.58.08-2.35-.19a12.31,12.31,0,0,0-4.23.39c-.25.1-.43.33-.7.37l-.1,0a1.55,1.55,0,0,1-.78-.41c-.05-.59-.45-.6-.9-.54-.42-.1-.84-.14-1.27-.21l-1.41-.1c-.42-.12-.87-.12-1.28-.28l-.86-.08c-.76-.29-1.56,0-2.33-.14a23.37,23.37,0,0,0-4.73.22.77.77,0,0,0-1.1.1h0a3.51,3.51,0,0,1-.54.55l0,0a1,1,0,0,1-1.52.08l-.27-.42-.08-.24-.26-.05a2.12,2.12,0,0,0-1.4-.15,12.2,12.2,0,0,0-1.81-.18,7.47,7.47,0,0,0-3.19.2,22.09,22.09,0,0,1-5.79.48l-.13-.17-.21,0c-.41-.1-.84-.14-1.27-.21l-1-.08c-.33-.26-.74-.18-1.11-.28l-1.92-.07a1.45,1.45,0,0,1-.79-.37h0a.64.64,0,0,0-.49-.3l-.52-.18c-.45-.36-.88-.11-1.31.06l-1.37.26a1.66,1.66,0,0,1-.71.42.34.34,0,0,0-.35.42,1.75,1.75,0,0,1-.34.79l0,0a1.14,1.14,0,0,1-1.05.18l-.88-.14c-.42-.12-.87-.12-1.29-.28l-.84-.09a.9.9,0,0,1-.76-.5c-.1-.31-.24-.52-.6-.31a1.58,1.58,0,0,1-.72.44,3.1,3.1,0,0,0-.42-.08c-.06,0-.12.08-.18.13a.88.88,0,0,1-.76-.5l-.28-.43a.68.68,0,0,0-.38-.43v0a5.08,5.08,0,0,0-.54-.5h0c-.3-.3-.74-.17-1.08-.36l-.54,0a1.77,1.77,0,0,1-.71.42.23.23,0,0,0-.31.21c-.39.19-.82.28-1.22.45l-1.35.33c-.37.2-.18.7-.5.93-.42,0-.86,0-1.1-.43a.27.27,0,0,1-.18-.33l-.11-.16v.2a.42.42,0,0,1-.25.3l0,0a1.45,1.45,0,0,1-.56.59l-1.79.1a1.35,1.35,0,0,1-.78-.34l-.14-.14-.19.05c-.28,0-.49-.19-.75-.26a4.91,4.91,0,0,0-2.09,0c-.68-.48-1.48.09-2.18-.26a.46.46,0,0,0-.5-.06c-.33-.27-.79-.13-1.13-.38l-.15-.14-.2.06c-.25,0-.52-.18-.71.12h0c-.33.65.31.76.58,1.07l0,0c.59.7.3,1.17-.46,1.28s-1.71.46-2.55-.06l0,0a1.64,1.64,0,0,1-.6-.51l0,0-.61-.4a.19.19,0,0,0-.32-.1,1.78,1.78,0,0,1-.77-.3l-1,0a1.18,1.18,0,0,1-.56-.7v-.2l-.17-.1c-.41-.42-.8-.08-1.2,0l-.85.28c-1.22.15-2.43.62-3.67.09l0,0a5.19,5.19,0,0,1-.62-.42.35.35,0,0,0-.54.19.9.9,0,0,0-.47.39l-.54.19a10.48,10.48,0,0,0-1.75.46l-1.83.18a3.21,3.21,0,0,0-.61-.32l-.51-.11c-.32-.28-.83-.12-1.11-.49l0,0c-.39-.18-.29-.73-.69-.91l0,0c-.25-.36-.7-.19-1-.38l-3,.08c-1.38-.13-.94-1.44-1.39-2.17-.09-.3-.3-.36-.58-.28-.33-.27-.8-.15-1.14-.4h0a1,1,0,0,0-.55-.37l-.08-.07c-.61-.29-.66,0-.67.55s.4,1.17-.36,1.53H95l-.1.15a6.3,6.3,0,0,1-1.23.52l-1.33.16c-.45-.51-.88-.2-1.32,0l-1.31.16c-.32-.27-.83-.12-1.12-.48l0,0a1.56,1.56,0,0,1-.6-.51l0,0a.46.46,0,0,0-.6.06h0a3.51,3.51,0,0,0-.39.61l0,.08a1.19,1.19,0,0,0-.48.49h0c-.36.29-.71.36-1-.05a.38.38,0,0,0-.21-.42c-.11-.24-.33-.42-.38-.7s-.11-.56-.17-.84c.77-1.05.46-1.72-.74-2.05a2.33,2.33,0,0,1-.59-.39.53.53,0,0,1,0-.64l.14-.15-.08-.19c0-.25.18-.52-.12-.71h0a1.44,1.44,0,0,1-.17-1.59l0,0a8,8,0,0,1,1.25-.52l3-.39a1.6,1.6,0,0,1,.71-.42c.28-.08.33-.28.3-.53a1.52,1.52,0,0,1,.5-.65l0,0c1-.66,2.05-.46,3.11-.45l.56.09a1.49,1.49,0,0,0,.58.39l.06.07a.78.78,0,0,1,0,1.07l0,0c-.13.2-.26.41-.4.61s-.31.63,0,.87a.82.82,0,0,0,1.11-.09.27.27,0,0,0,.31-.34.24.24,0,0,0,.21-.35c.25-.59,0-1.23.24-1.82l.11-.21,0-.23a1.21,1.21,0,0,1,.54-.64.39.39,0,0,0,.42-.18.55.55,0,0,1,.51,0,.4.4,0,0,0,.48.09,3,3,0,0,0,.61.32l1.93.05c.43.12.87.12,1.29.28l.55-.16a.49.49,0,0,0,.38-.39l.07-.06c.53-.23,1.06-.44,1.59,0l0,0a1.44,1.44,0,0,1,.59.56c.33.7.94.33,1.44.37a13.71,13.71,0,0,0,1.81.19l.51.11c.87.48,1.81-.1,2.69.16s1.49.55,1.69-.66c.07-.42.54-.32.83-.44a2.37,2.37,0,0,0,.61.32l.89.14a1.07,1.07,0,0,0,.92-.08l.85-.22c.28-.19.67-.18.85-.51a.37.37,0,0,0-.08-.54.45.45,0,0,0-.39-.36l-.1-.08a.48.48,0,0,0-.41-.35.26.26,0,0,0-.35-.23,1.36,1.36,0,0,1-.78-.35l-.14-.14-.19.06c-.42-.12-.87-.12-1.28-.28l-1.56,0c-.5-.38-1.1-.05-1.64-.24l-.56.05a2.21,2.21,0,0,1-1.56.06.46.46,0,0,0-.5-.06c-.67-.49-1.5.13-2.18-.29a.19.19,0,0,0-.32-.1,1.36,1.36,0,0,1-.78-.35l-.13-.14-.19.06a19.26,19.26,0,0,0-6.24.5l-.19,0-.11.16a3.41,3.41,0,0,1-.59.49l-1,.12a1.74,1.74,0,0,0-.58-.39l-.06-.07a4.41,4.41,0,0,0-.47-.58v-.25l-.14-.21a1.35,1.35,0,0,0-.48-.41.44.44,0,0,0-.5-.05,1.86,1.86,0,0,0-1.84.1l-.2,0-.11.16c-.26.42-1.43,0-1,1.09l.09,1.07a3.23,3.23,0,0,0-.48.56l-2,.12a1.23,1.23,0,0,1-.64-.55l-.27-.43a.9.9,0,0,0-.37-.47c0-.18,0-.36,0-.54a3.64,3.64,0,0,0,.48-.56c.35-.06.64-.16.29-.57,0-.23-.11-.33-.33-.31a.26.26,0,0,0-.35-.23.79.79,0,0,1-.77-.41h0a2.63,2.63,0,0,0-.61-.39l-.07-.05a.51.51,0,0,0-.44-.32l-.5-.19a2.69,2.69,0,0,0-.61-.31,1,1,0,0,0-1,0l-.38.38s.06.21.06.21l.22.05a1.61,1.61,0,0,1,.68.26h0a1,1,0,0,1,.15,1.06.22.22,0,0,0-.17.33,1.66,1.66,0,0,1-.3.77c0,.28-.06.57-.1.85a.88.88,0,0,1-.49.76l-.85.07c-.87-.59-.08-1.76-.83-2.4a.35.35,0,0,0-.44-.15,1.23,1.23,0,0,1-.64-.55.39.39,0,0,0-.21-.43c-.28-.47,0-1.13-.51-1.53h0a.37.37,0,0,0-.39-.11c-.13,0-.19.1-.19.14l-.48.19c-.53.13-1.08.42-1.55-.12-.17-.5.38-1.23-.47-1.51-.59-.27-1.27.06-1.83-.32h0c-.43-.49-1.2.1-1.59-.51l-.07-.85a1.45,1.45,0,0,1,.5-.65l0,0a.79.79,0,0,1,.5-.36c.09-.14.4.21.4-.17-.22-.13-.3-.39-.48-.55a1.11,1.11,0,0,0-1.06.11c-.47.36-1.16.07-1.59.55l-.48.19c-.24.12-.42.33-.7.38l-1.37.18a3.29,3.29,0,0,0-.57-.48l-.06-1a.84.84,0,0,0-.09-1.14v-.78c.13-.62.74-.56,1.14-.8.31-.08.37-.29.29-.57,0-.82.79-1.89-.76-2.15h0a1.45,1.45,0,0,1-.51.59l0,0a2,2,0,0,1-2.09.26h0a1,1,0,0,0-.55-.38l-.1-.09a.77.77,0,0,0-.47-.43l-.06-.07a7.51,7.51,0,0,1-.31-3.16.39.39,0,0,0,.14-.46.92.92,0,0,1,.68-.61l.82-.28c.37-.2.82-.35.44-.91l-.12-.14-.19,0a.9.9,0,0,1-.76-.5l-.06-1.27c0-.28.18-.49.25-.75l0-.55c-.11-.24-.33-.43-.37-.7l-.18-1.8a1.28,1.28,0,0,1,.54-.63.4.4,0,0,0,.43-.22c.43-.29,1.07,0,1.41-.5l.19-.11,0-.22c0-.28.19-.5.26-.75a.41.41,0,0,0-.11-.56.78.78,0,0,0-.36-.47l0-.54a1.22,1.22,0,0,0,.36-.59l.08-.09c.48-.33.19-.66,0-1l0,0a1.64,1.64,0,0,1-.6-.51l0,0c-.52-.42-.38-1-.31-1.52a.42.42,0,0,0,.14-.46,3.54,3.54,0,0,1,.41-.67v0a.67.67,0,0,0,.3-.49,3.06,3.06,0,0,0,0-2.15l-.47-.54,0,0c-.53-.45-.41-1-.26-1.57l0-.08a.81.81,0,0,0,.42-.49l.07-.06a3.09,3.09,0,0,0,.54-.48h0a2.46,2.46,0,0,0,.38-.57c-.09-.71.59-1.51-.26-2.13a.74.74,0,0,0-.4-.43v0a6.28,6.28,0,0,0-.54-.49h0a.76.76,0,0,0-1.1.07l-1,.1a4,4,0,0,0-.57-.45l0,0a3.24,3.24,0,0,1-.51-.6l0-.23-.14-.19a9.46,9.46,0,0,1-.28-4.23v0a2.13,2.13,0,0,0,.46-.54l0,0c.3-.3.78-.25,1.07-.57.75-.24.9-.6.22-1.12a.56.56,0,0,0-.41-.38l-.06-.07a3.73,3.73,0,0,0-.47-.58v-.25l-.14-.21c-.25-.32-.21-.77-.52-1.06l-.25-.49a.69.69,0,0,0-.39-.43v0a1.49,1.49,0,0,1-.48-.73c0-.38-.07-.77-.11-1.15s.15-.85.22-1.27,0-.69.08-1c.27-.33.15-.78.34-1.13l.11-.24-.05-.26c.26-.33.18-.74.29-1.11a.39.39,0,0,0,.14-.45,1.26,1.26,0,0,1,.54-.64.37.37,0,0,0,.41-.21c.18-.14.16-.27,0-.38h0a1.33,1.33,0,0,0-.53-.35.38.38,0,0,0-.45-.14c-.44-.23-.42-.59-.3-1l.18-.14,0-.22c.06-.27.18-.54-.11-.76l-.19-2.53a4.53,4.53,0,0,0,.34-.61.22.22,0,0,0,.17-.33,1.2,1.2,0,0,1,.39-.79h0c.29-.31.18-.77.39-1.11l0,0a1.94,1.94,0,0,1,1.57-.22l.52.12a.83.83,0,0,0,1.14-.1.43.43,0,0,0,.48-.13C68,374.12,68.64,374.26,69.18,373.93Z" transform="translate(-61.78 -340.31)"/></svg>